<svg xmlns="http://www.w3.org/2000/svg" id="Layer_2" data-name="Layer 2" viewBox="0 0 197.04 266.26"><defs><style>      .cls-1 {        fill: #fff;      }      .cls-2 {        fill: #b8dc00;      }      .cls-3 {        fill: #ebcf21;      }      .cls-4 {        fill: #7cb300;      }    </style></defs><g id="Layer_1-2" data-name="Layer 1"><g><path class="cls-2" d="m146.68,120.04s-24.35,9.01-31.5,29.54c.5,1.92.96,3.88,1.32,5.94.34,1.91.54,3.7.77,5.52,28.32-.72,57.76-33.61,39.48-62.18,0,0-4.58,8.51-20.69,13.56-14.72,4.61-23.52,11.13-28.79,19.22,2.31,3.4,4.23,7.12,5.77,11.17,10.92-18.89,33.63-22.76,33.63-22.76Z"></path><path class="cls-4" d="m98.52,0L1.94,71.14v113.44c0,8.85,5.85,16.71,14.38,19.07,51.1,14.13,103.75,3.23,94.81-47.18-3.58-20.21-13.91-35.76-43.92-44.5-19.77-5.75-25.57-16.03-25.57-16.03-22.63,37,18.82,78.62,54.68,74.72-.85-34.98-41.87-49.13-41.87-49.13,0,0,40.59,6,48.02,43.59,8.58,43.42-32.74,45.64-80.22,25.19-4.85-2.09-8-6.88-8-12.16v-100.79S98.52,15.29,98.52,15.29l84.27,62.07v105.81c0,8.01-5.75,14.87-13.65,16.26l-56.23,9.91h55.77c14.59,0,26.42-11.83,26.42-26.42v-111.78L98.52,0Z"></path><circle class="cls-3" cx="98.52" cy="85.78" r="13.95"></circle></g><g><path class="cls-1" d="m30.12,241.72v19.99h-5.94l-4.43-3.76c-1.74,1.31-3.96,1.94-6.65,1.94-3.64,0-6.49-1.19-8.51-3.56-2.06-2.38-3.17-5.74-3.29-10.09l4.2-.48c.36,3.36,1.15,5.86,2.38,7.48,1.23,1.66,2.97,2.49,5.22,2.49,1.62,0,2.89-.44,3.72-1.31.83-.87,1.23-2.1,1.23-3.68,0-2.41-.75-3.6-2.22-3.6-.67,0-1.19.2-1.46.63-.32.44-.48.99-.48,1.7,0,.79.16,1.54.44,2.26l-3.88,1.46s-.12-.16-.4-.59c-.28-.44-.51-.95-.71-1.62-.2-.63-.32-1.35-.32-2.18,0-1.78.55-3.21,1.7-4.27,1.11-1.03,2.69-1.54,4.71-1.54,2.45,0,4.31.71,5.62,2.18,1.31,1.46,1.94,3.36,1.94,5.7,0,1.38-.2,2.57-.63,3.56l3.21,2.69c-.28-1.58-.4-3.37-.4-5.38v-10.01H0v-3.96h33.09v3.96h-2.97Z"></path><path class="cls-1" d="m55.85,241.72h-2.97v19.99h-4.99v-13.7c0-4.08-1.74-6.13-5.22-6.13-1.86,0-3.21.63-4.08,1.86h.32c4.12,0,6.17,1.82,6.17,5.5,0,1.38-.36,2.73-1.03,4.12-.71,1.39-1.7,2.73-2.93,4l-3.56-2.93c1.78-1.94,2.69-3.68,2.69-5.18,0-1.39-.91-2.06-2.69-2.06-.4,0-.79,0-1.15.04-.4.04-.63.08-.75.12l-2.73-2.57c.71-2.3,1.86-4.08,3.4-5.34,1.54-1.23,3.4-1.86,5.62-1.86,1.27,0,2.37.2,3.36.55.99.4,1.82,1.03,2.57,1.86v-5.78h4.99v3.56h2.97v3.96Z"></path><path class="cls-1" d="m47.34,232.3l10.37-7.96,2.65,3.36-10.41,8.35-2.61-3.76Z"></path><path class="cls-1" d="m65.95,241.72h-2.97v19.99h-4.95v-19.47c-.59-.36-1.35-.51-2.18-.51h-.79v-3.96h.79c.55,0,1.03.12,1.46.36.4.28.79.63,1.15,1.15v-5.07h4.51v3.56h2.97v3.96Z"></path><path class="cls-1" d="m88.67,233.4c-1.78-.51-3.64-.99-5.58-1.35-1.94-.36-3.76-.51-5.38-.51-1.5,0-2.65.32-3.44.91-.79.59-1.19,1.58-1.19,2.93v2.38h2.97v3.96h-2.97v19.99h-4.95v-19.99h-2.97v-3.96h2.97v-2.38c0-2.69.83-4.75,2.49-6.13,1.62-1.39,3.96-2.06,7.01-2.06,3.44,0,7.48.87,12.07,2.57l-1.03,3.64Z"></path><path class="cls-1" d="m95.55,241.72v19.99h-4.51c-1.46-3.44-2.77-6.06-4-7.84s-2.53-2.65-3.84-2.65c-.59,0-1.07.2-1.39.59-.36.44-.51,1.03-.51,1.78l.04.75h-4.39c-.12-.51-.16-1.23-.16-2.06,0-1.78.48-3.17,1.46-4.16.99-.95,2.38-1.42,4.2-1.42,3.84,0,6.77,2.41,8.75,7.28l.2-.08c-.55-2.57-.83-5.15-.83-7.8v-4.39h-15.32v-3.96h23.27v3.96h-2.97Z"></path><path class="cls-1" d="m116.33,243.38c1.86.04,3.52.4,4.99,1.07,1.46.67,2.61,1.58,3.44,2.77.83,1.19,1.27,2.57,1.27,4.16,0,3.21-1.43,5.7-4.28,7.48l-2.81-3.21c1.46-1.23,2.18-2.65,2.18-4.27,0-1.19-.4-2.14-1.23-2.81s-2.02-1.03-3.56-1.07v14.21h-4.95l-12.07-8.55v-4.16c3.84-2.77,7.84-4.51,12.07-5.26v-2.02h-13.66v-3.96h29.73v3.96h-11.12v1.66Zm-4.95,8.23v-3.56c-2.33.59-4.67,1.54-7.01,2.93l7.28,5.19c-.2-1.39-.28-2.93-.28-4.55Z"></path><path class="cls-1" d="m142.62,252.76c.04,1.39.24,2.53.67,3.36s1.27,1.27,2.57,1.27l.71,3.96c-.87.24-1.66.36-2.41.36-2.18,0-3.8-.83-4.87-2.45-1.07-1.62-1.62-3.8-1.62-6.45s.4-5.42,1.19-8c.79-2.57,1.94-4.91,3.4-7.04h4.91v3.96h-1.86c-1.78,3.52-2.69,7.2-2.69,11.04Z"></path><path class="cls-1" d="m164.59,241.72h-18.21v-3.96h18.21v3.96Zm-1.11,20.5l-2.3,4.04-13.46-8,1.82-3.72c1.19.28,2.3.4,3.29.4,3.21,0,4.83-1.5,4.83-4.51,0-.95-.2-1.74-.59-2.34-.4-.59-.99-.91-1.78-.91s-1.31.28-1.66.79-.55,1.15-.55,1.9c0,.44.04.95.16,1.54l-4.28,1.11c-.24-.44-.44-.91-.59-1.5s-.24-1.19-.24-1.82c0-1.94.63-3.48,1.94-4.55,1.27-1.07,2.97-1.62,5.11-1.62,2.41,0,4.23.67,5.54,2.02,1.27,1.38,1.9,3.17,1.9,5.38s-.59,4-1.78,5.34c-1.23,1.35-2.85,2.14-4.87,2.33,1.19.47,2.38,1.07,3.52,1.74l4,2.38Z"></path><path class="cls-1" d="m174.68,241.72h-2.97v19.99h-4.95v-19.47c-.59-.36-1.35-.51-2.18-.51h-.79v-3.96h.79c.55,0,1.03.12,1.46.36.4.28.79.63,1.15,1.15v-5.07h4.51v3.56h2.97v3.96Z"></path><path class="cls-1" d="m194.08,241.72v19.99h-4.95v-1.38c0-3.05-.36-5.5-1.07-7.28-.75-1.78-2.22-2.69-4.39-2.69-.95,0-1.7.24-2.22.67-.55.44-.83,1.11-.83,1.98,0,1.54.99,2.34,2.93,2.34v3.96c-.47.08-.95.12-1.42.12-2.02,0-3.56-.51-4.67-1.58-1.15-1.07-1.7-2.65-1.7-4.75,0-1.35.28-2.53.83-3.52.51-.99,1.31-1.78,2.33-2.38l-3.17-5.46h-1.86v-3.96h23.15v3.96h-2.97Zm-12.83,0l2.3,4.47c2.53.08,4.39.99,5.58,2.69v-7.16h-7.88Z"></path></g></g></svg>