<svg xmlns="http://www.w3.org/2000/svg" id="Layer_2" data-name="Layer 2" viewBox="0 0 182.66 170.24"><defs><style>      .cls-1 {        fill: #00b6b6;      }      .cls-2 {        fill: #98d1ed;      }    </style></defs><g id="Layer_1-2" data-name="Layer 1"><g><path class="cls-1" d="m127.97,167.03c24.22-19.36,46.71-53.5,53.09-86.25,7.79-40.04-13.94-70.29-42.91-78.55-32.17-9.18-69.99,10.72-73.71,45.53-.95,8.81,1.53,15.73,5.6,20.51,13.21,15.49,39.89,5.46,31.51-12.11-4.84,10.11-18.26,12.19-22.95,1.22-4.63-10.8,4.07-28.26,33.88-17.1,3.71,1.61,7.28,3.71,10.58,6.26,12.52,9.69,20.15,23.5,22.47,38.68,14.47-1.47,15.19,23.1-.8,23.06-4.19,16.13-16.49,27.51-30.97,32.98,7.42,6.73,11.77,15.55,14.21,25.76Z"></path><path class="cls-1" d="m60.34,47.78C19.66,35.89-6.8,69.75,1.54,104.11l1.71.09c5.68.34,10.34,2.35,14.47,5.23-2.44-12.22-2.19-26.46,3.07-42.55,0,0-7.75,40.57,20.97,65.27,1.08.78,2.17,1.52,3.29,2.19-2.83-3.41-4.26-7.65-3.1-12.96l1.13-5.18c-1.17-2.5-2.14-5.13-2.86-7.92-15.99.03-15.27-24.54-.8-23.06,2.22-14.55,9.33-27.85,20.94-37.44Z"></path><path class="cls-1" d="m75.78,96.81c.3,2.57-1.16,2.99-2.93,1.36-.59-.55-1.19-1.19-1.69-1.69-2.86-2.8-7.78-2.43-11.11.74-1.14,1.08-2.79,1.83-2.5-.55,1.06-8.61,16.81-11.94,18.23.14Zm33.36,0c-.3,2.57,1.14,2.99,2.93,1.36.58-.55,1.17-1.19,1.69-1.69,2.86-2.8,7.76-2.43,11.11.74,1.14,1.08,2.79,1.83,2.49-.55-1.06-8.61-16.79-11.94-18.21.14Z"></path><path class="cls-1" d="m74.44,116.57c4.3,14.54,31.75,14.54,36.05,0,.88-2.99-2.55-1.91-3.86-1.55-9,2.47-19.34,2.47-28.32,0-1.31-.36-4.76-1.44-3.86,1.55Z"></path><path class="cls-2" d="m2.96,109.03c24.82,59.55,78.58,54.41,120.78,61.21-9.44-45.17-49.54-32.62-77.09-47.82-3.49,16.01,27.29,19.37,41.2,26.51-21.39-.09-42.26-3.47-59.07-21.94-8.12-8.9-14.76-17.31-25.82-17.96Z"></path></g></g></svg>