<svg xmlns="http://www.w3.org/2000/svg" id="Layer_2" data-name="Layer 2" viewBox="0 0 263.72 224.87"><defs><style>      .cls-1 {        fill: #fff;      }      .cls-2 {        fill: #ffe512;      }    </style></defs><g id="Layer_1-2" data-name="Layer 1"><g><path class="cls-1" d="m168.5,167.03c24.22-19.36,46.71-53.5,53.09-86.25,7.79-40.04-13.94-70.29-42.91-78.55-32.17-9.18-69.99,10.72-73.71,45.53-.95,8.81,1.53,15.73,5.6,20.51,13.21,15.49,39.89,5.46,31.51-12.11-4.84,10.11-18.26,12.19-22.95,1.22-4.63-10.8,4.07-28.26,33.88-17.1,3.71,1.61,7.28,3.71,10.58,6.26,12.52,9.69,20.15,23.5,22.47,38.68,14.47-1.47,15.19,23.1-.8,23.06-4.19,16.13-16.49,27.51-30.97,32.98,7.42,6.73,11.77,15.55,14.21,25.76Z"></path><path class="cls-1" d="m100.87,47.78c-40.68-11.89-67.14,21.97-58.8,56.33l1.71.09c5.68.34,10.34,2.35,14.47,5.23-2.44-12.22-2.19-26.46,3.07-42.55,0,0-7.75,40.57,20.97,65.27,1.08.78,2.17,1.52,3.29,2.19-2.83-3.41-4.26-7.65-3.1-12.96l1.13-5.18c-1.17-2.5-2.14-5.13-2.86-7.92-15.99.03-15.27-24.54-.8-23.06,2.22-14.55,9.33-27.85,20.94-37.44Z"></path><path class="cls-1" d="m116.32,96.81c.3,2.57-1.16,2.99-2.93,1.36-.59-.55-1.19-1.19-1.69-1.69-2.86-2.8-7.78-2.43-11.11.74-1.14,1.08-2.79,1.83-2.5-.55,1.06-8.61,16.81-11.94,18.23.14Zm33.36,0c-.3,2.57,1.14,2.99,2.93,1.36.58-.55,1.17-1.19,1.69-1.69,2.86-2.8,7.76-2.43,11.11.74,1.14,1.08,2.79,1.83,2.49-.55-1.06-8.61-16.79-11.94-18.21.14Z"></path><path class="cls-1" d="m114.97,116.57c4.3,14.54,31.75,14.54,36.05,0,.88-2.99-2.55-1.91-3.86-1.55-9,2.47-19.34,2.47-28.32,0-1.31-.36-4.76-1.44-3.86,1.55Z"></path><path class="cls-2" d="m43.49,109.03c24.82,59.55,78.58,54.41,120.78,61.21-9.44-45.17-49.54-32.62-77.09-47.82-3.49,16.01,27.29,19.37,41.2,26.51-21.39-.09-42.26-3.47-59.07-21.94-8.12-8.9-14.76-17.31-25.82-17.96Z"></path><g><path class="cls-2" d="m.87,184.26c.23-1.32,1.82-1.98,4.76-1.98,1.51,0,2.81.23,3.89.7,1.24.58,1.9,1.36,1.98,2.32.12.66.17,1.47.17,2.44v1.51c-.04.7-.06,1.2-.06,1.51,0,2.17.5,3.53,1.51,4.07,1.32.27,2.46-.56,3.43-2.5.85-1.86,1.68-3.72,2.5-5.58,1.16-2.09,2.54-3.14,4.13-3.14s3.07.59,4.56,1.77c1.49,1.18,2.24,2.55,2.24,4.1,0,.46-.08.93-.23,1.39-.58,1.98-1.88,4.15-3.89,6.51-2.01,2.36-4.2,4.24-6.57,5.64,2.17,1.05,4.34,2.94,6.51,5.69,2.56,3.25,4.05,6.59,4.47,9.99.12,1.51-.47,2.74-1.77,3.69-1.3.95-2.82,1.42-4.56,1.42-1.51,0-2.75-.37-3.72-1.1-.62-.81-1.34-2.23-2.15-4.24-.89-2.29-1.55-3.78-1.98-4.47-.85-1.35-1.84-2.03-2.96-2.03-.31,0-.64.04-.99.12-.89.54-1.34,1.58-1.34,3.09s.44,3.56,1.34,6.36c-.46,2.02-2.19,3.03-5.17,3.03-1.67,0-3.1-.41-4.3-1.22-1.32-.89-1.98-2.11-1.98-3.67-.46-9.15-.7-15.96-.7-20.42,0-6.05.29-11.05.87-15.01Z"></path><path class="cls-2" d="m33.12,188.5c.27-4.22,2.75-6.29,7.44-6.22,1.98.04,3.43.56,4.36,1.57.62.7,1.12,1.82,1.51,3.37.15.62.23,1.22.23,1.8,0,1.86-.6,3.39-1.8,4.59-1.32,1.32-3.14,1.98-5.46,1.98-2.01,0-3.64-.83-4.88-2.5-1.05-1.39-1.51-2.92-1.39-4.59Zm1.16,11.5c.7-1.28,2.4-1.92,5.11-1.92,2.91,0,4.78.72,5.64,2.15.62,1.2.93,5.06.93,11.56,0,5.81-.25,9.53-.76,11.16-.54,1.28-2.42,1.92-5.64,1.92-2.98,0-4.71-.58-5.17-1.74-.85-1.82-1.28-6.04-1.28-12.67,0-5.93.39-9.41,1.16-10.46Z"></path><path class="cls-2" d="m78.09,184.61c.35.74.72,3.08,1.1,7.03.35,4.26.52,8.56.52,12.9,0,7.75-.62,13.09-1.86,16.04-.66,1.28-2.13,2.29-4.42,3.02-2.09.66-4.53.99-7.32.99s-5.11-.31-7.32-.93c-2.36-.62-4.05-1.49-5.05-2.61-2.44-2.98-3.66-6.31-3.66-9.99s1.28-6.78,3.83-9.06c2.25-1.28,4.4-1.92,6.45-1.92,1.36,0,2.8.33,4.33.99,1.53.66,2.41.99,2.64.99.35,0,.62-.14.81-.41.66-1.05.99-2.52.99-4.42,0-1.59-.28-3.82-.84-6.71-.56-2.89-.84-4.62-.84-5.2,0-.35.04-.62.12-.81.39-1.43,2.13-2.15,5.23-2.15s4.74.76,5.29,2.27Zm-9.7,27.66c0-2.05-.78-3.2-2.32-3.43-1.01-.15-1.74-.23-2.21-.23-1.63,0-2.63.78-3.02,2.32-.12.43-.17.81-.17,1.16,0,1.47,1.3,2.44,3.89,2.9.93.16,1.8-.06,2.61-.64.81-.58,1.22-1.28,1.22-2.09Z"></path><path class="cls-2" d="m97.78,188.33c6.62,0,11.29.81,14,2.44,1.51,1.39,2.27,3.6,2.27,6.62,0,3.18-.43,5.35-1.28,6.51-.66,1.28-3.24,2.96-7.73,5.06-4.18,1.94-6.24,3.43-6.16,4.47.15.47.7.7,1.63.7.77,0,2.28-.22,4.5-.67,2.23-.44,3.81-.67,4.73-.67.74,0,1.3.12,1.69.35.85.31,1.57.98,2.15,2,.58,1.03.87,2.12.87,3.28,0,2.4-1.12,3.95-3.37,4.65-2.01,1.09-6.37,1.63-13.07,1.63-5.81,0-9.82-.54-12.03-1.63-1.7-.66-2.56-2.85-2.56-6.57,0-1.67.23-2.94.7-3.83.43-1.39,2.01-2.96,4.76-4.71,2.4-1.36,4.83-2.73,7.29-4.13,2.46-1.39,3.69-2.46,3.69-3.2,0-.23-.12-.44-.35-.64-.5-.97-1.51-1.45-3.02-1.45-1.05,0-2.7.28-4.97.84-2.27.56-3.79.84-4.56.84-.85,0-1.43-.21-1.74-.64-1.2-.54-1.8-2.25-1.8-5.11,0-2.13.48-3.56,1.45-4.3,2.56-1.24,6.86-1.86,12.9-1.86Z"></path><path class="cls-2" d="m159.55,184.61c.73,1.01,1.1,2.15,1.1,3.43s-.34,2.32-1.02,3.02c-.68.7-2.57,1.47-5.66,2.32-2.91.78-4.78,1.78-5.64,3.02-1.2,1.82-1.8,4.28-1.8,7.38s.73,5.44,2.21,7.5c1.67,1.09,3.27,1.63,4.82,1.63,1.7,0,3.56-.64,5.58-1.92.7-.35,1.39-.52,2.09-.52,1.08,0,1.98.4,2.67,1.19.7.79,1.03,1.85.99,3.17-.27,2.48-.78,4.22-1.54,5.23-.75,1.01-2.45,2.11-5.08,3.31-1.94.74-3.68,1.1-5.23,1.1-1.32,0-3.22-.31-5.69-.93-3.41-1.32-5.25-2.05-5.52-2.21-.97-.54-2.25-1.72-3.83-3.54-1.08-1.43-2-3.68-2.73-6.74-.66-2.94-.99-5.85-.99-8.72,0-2.36.23-4.22.7-5.58,2.32-4.88,5.29-8.52,8.89-10.92,1.9-1.51,4.13-2.52,6.68-3.02.62-.12,2.36-.27,5.23-.46,1.67.31,2.92,1.07,3.78,2.27Z"></path><path class="cls-2" d="m169.66,189.72c2.4-2.32,6.33-3.49,11.79-3.49s9.3,1.32,11.5,3.96c1.32.78,2.34,3.12,3.08,7.04.62,3.49.93,7.51.93,12.05,0,6.05-.5,10.22-1.51,12.51-.35,1.86-1.82,2.79-4.42,2.79-2.05,0-3.22-.62-3.49-1.86-1.86.81-3.91,1.22-6.16,1.22s-4.4-.37-6.57-1.1c-1.98-.7-3.54-1.57-4.71-2.61-1.94-2.52-2.9-5.44-2.9-8.77,0-2.87.83-5.03,2.5-6.51,2.17-2.09,4.74-3.14,7.73-3.14,1.55,0,3.23.3,5.05.9,1.82.6,2.69.9,2.61.9,1.47,0,2.21-.83,2.21-2.5,0-.97-.32-1.94-.96-2.91-.64-.97-1.52-1.67-2.64-2.09-1.39-.43-2.67-.64-3.83-.64-1.43,0-2.92.39-4.47,1.16-1.55.78-2.63,1.16-3.25,1.16-.78,0-1.61-.29-2.5-.87-.97-1.36-1.45-2.65-1.45-3.89s.48-2.34,1.45-3.31Zm6.86,22.78c0,.93.27,1.57.81,1.92.35.19,1.03.35,2.03.47,1.35.16,2.46,0,3.31-.44.85-.44,1.28-1.11,1.28-2,0-1.7-1.38-2.75-4.13-3.14-1.05-.15-1.86.1-2.44.75-.58.66-.87,1.47-.87,2.44Z"></path><path class="cls-2" d="m204.92,188.99c1.2-.37,2.46-.55,3.78-.55,2.79,0,4.26.66,4.42,1.98.39.43.5,1.07.35,1.92l-.35,1.8c0,.46.44.64,1.34.52,3.68-2.13,7.42-3.2,11.21-3.2.89,0,1.78.06,2.67.17,1.08-.08,1.91.34,2.47,1.25.56.91.84,2,.84,3.28,0,1.08-.2,2.05-.61,2.91-.41.85-.96,1.32-1.66,1.39-2.83.62-5.67,1.22-8.54,1.8-3.6.89-5.77,1.92-6.51,3.08-.54.54-.81,1.51-.81,2.91,0,1.12.25,3.03.76,5.72.5,2.69.76,4.54.76,5.55,0,1.2-.25,2.01-.76,2.44-.78,1.63-2.54,2.44-5.29,2.44s-4.61-.81-5.23-2.44c-.74-.43-1.39-2.73-1.95-6.91-.56-4.18-.84-8.5-.84-12.96,0-6.28.58-10.17,1.74-11.68.27-.58,1.01-1.05,2.21-1.42Z"></path><path class="cls-2" d="m252.27,188.33c6.51,0,9.76,3.85,9.76,11.56-.89,5.27-3.62,7.9-8.19,7.9-1.12,0-2.52-.16-4.18-.49-1.67-.33-2.65-.49-2.96-.49-.27,0-.46.04-.58.12-.66.39-.99.95-.99,1.69,0,.62.24,1.23.73,1.83.48.6,1.05.98,1.71,1.13,2.94.81,4.78,1.22,5.52,1.22,1.67,0,3.29-.5,4.88-1.51.7-.31,1.39-.46,2.09-.46,1.08,0,1.98.37,2.67,1.1.7.74,1.03,1.74.99,3.02-.27,2.36-.78,4.02-1.54,4.97-.75.95-2.45,2-5.08,3.17-1.94.7-3.68,1.05-5.23,1.05-1.32,0-3.22-.29-5.69-.87-3.41-1.28-5.25-1.99-5.52-2.15-.97-.5-2.25-1.61-3.83-3.31-2.36-2.9-3.54-6.66-3.54-11.27,0-1.55.17-2.96.52-4.24,1.01-5.27,2.77-8.81,5.29-10.63,1.67-1.39,3.45-2.3,5.35-2.73,1.16-.27,2.96-.41,5.4-.41.85-.12,1.67-.17,2.44-.17Zm-4.59,10.78c.58.45,1.28.67,2.09.67s1.45-.22,2.03-.67c.58-.44.87-.98.87-1.6s-.29-1.15-.87-1.6c-.58-.44-1.26-.67-2.03-.67-.81,0-1.51.22-2.09.67-.58.45-.87.98-.87,1.6s.29,1.15.87,1.6Z"></path></g></g></g></svg>